<?xml version="1.0" encoding="UTF-8"?>
<svg id="Capa_2" xmlns="http://www.w3.org/2000/svg" viewBox="0 0 491.65 442.91">
  <defs>
    <style>
      .cls-1 {
        fill: #8bcbbb;
      }

      .cls-2 {
        fill: #dc146c;
      }

      .cls-3 {
        fill: #c78ebf;
      }

      .cls-4 {
        fill: #1d2646;
      }

      .cls-5 {
        fill: #ec7509;
      }

      .cls-6 {
        fill: #f9ee78;
      }

      .cls-7 {
        fill: #e86b93;
      }
    </style>
  </defs>
  <g id="Capa_1-2" data-name="Capa_1">
    <g>
      <g>
        <g>
          <path class="cls-2" d="M347.41,235.31c-16.97,12.58-38.78-37.16-48.27-50.72-9.2-13.14-24.19-45.68-36.3-34.44-14.97,13.89-10.69,70.92-8.98,80.93,2.65,15.47,4.86,76.11,4.86,89.56,0,25.65-2.56,35.14-21.33,35.14-13.41,0-18.76-6.29-18.76-31.93,0-7.82,4.23-72,5.35-92.62.83-15.32-1.16-68.5-2.34-90.31-.9-16.68-1.07-44.1,24.35-44.73,34.06-.84,40.62,18.46,49.77,31.52,12.35,17.63,26.28,57.09,31.89,49.61,6.96-9.28-10.61-46.32-11.31-64.33-.75-19.24,3.27-27.78,19.74-27.78,18.03,0,18.33,13.29,18.06,22.44-.56,18.82-1.78,52.77-1.5,71.6.35,22.91,3.44,49.63-5.24,56.06Z"/>
          <path class="cls-2" d="M278.9,205.38c16.97-12.58,38.78,37.16,48.27,50.72,9.2,13.14,24.19,45.68,36.3,34.44,14.97-13.89,10.69-70.92,8.98-80.93-2.65-15.47-4.86-76.11-4.86-89.56,0-25.65,2.56-35.14,21.33-35.14,13.41,0,18.76,6.29,18.76,31.93,0,7.82-4.23,72-5.35,92.62-.83,15.32,1.16,68.5,2.34,90.31.9,16.68,1.07,44.1-24.35,44.73-34.06.84-40.62-18.46-49.77-31.52-12.35-17.63-26.28-57.09-31.89-49.61-6.96,9.28,10.61,46.32,11.31,64.33.75,19.24-3.27,27.78-19.74,27.78-18.03,0-18.33-13.29-18.06-22.44.56-18.82,1.78-52.77,1.5-71.6-.35-22.91-3.44-49.63,5.24-56.06Z"/>
        </g>
        <path class="cls-2" d="M210.82,308.12c-.5-20.18-7.58-33.69-13.25-55.53-3.82-14.7-2.82-43.12-3.26-62.14,6.35-68.27.7-105.24-47.97-105.24-45.33,0-47.48,53.37-43.94,99.77,2.04,26.9,1.47,54.44-7.45,72.96-7.76,16.46-12.77,38.74-14.88,51.14-2.27,13.33-7.98,46.4,18.46,46.4,34.52,0,38.81-23.95,36.17-52.68-2.05-22.25.23-51.2.23-51.2,0,0,.33-19.19,13.13-19.19s14.23,19.46,14.23,19.46c0,0,3.9,30.71-1.38,50.85-4.25,16.2-6.13,51,19.23,51,27.21,0,30.69-15.77,30.69-45.6ZM135.4,186.39s-2.11-55.2,12.01-55.2c17.99,0,14.23,55.2,14.23,55.2h-26.24Z"/>
      </g>
      <path class="cls-3" d="M422.27,227.18s-2.43,5.53-8.44,1.98c-4.46-2.63-.57-8.97-.57-8.97,0,0-6.63.15-5.58-6.35,1.16-7.18,8.56-5.83,8.56-5.83,0,0,.57-8.35,7.1-8.35,7.53,0,8.11,9.61,8.11,9.61,0,0,8.57,1.13,8.69,6.5.11,5.37-6.01,6-6.01,6,0,0,4.18,5.1-.62,8.76-5.78,4.41-11.22-3.35-11.22-3.35Z"/>
      <circle class="cls-6" cx="423.55" cy="216.82" r="4.12"/>
      <path class="cls-3" d="M332.25,392.14s8.71,2.12,5.09,11.84c-2.69,7.2-12.97,3.16-12.97,3.16,0,0,1.94,9.66-7.84,9.81-10.8.17-10.75-11-10.75-11,0,0-12.36,1.33-14.06-8.22-1.97-11.02,11.96-14.35,11.96-14.35,0,0-.57-12.83,7.26-14.4,7.83-1.56,10.34,7.23,10.34,7.23,0,0,6.37-7.44,12.97-1.36,7.95,7.32-2,17.28-2,17.28Z"/>
      <circle class="cls-6" cx="316.76" cy="392.96" r="6.11"/>
      <path class="cls-3" d="M337.82,38.85s8.71,2.12,5.09,11.84c-2.69,7.2-12.97,3.16-12.97,3.16,0,0,1.94,9.66-7.84,9.81-10.8.17-10.75-11-10.75-11,0,0-12.36,1.33-14.06-8.22-1.97-11.02,11.96-14.35,11.96-14.35,0,0-.57-12.83,7.26-14.4s10.34,7.23,10.34,7.23c0,0,6.37-7.44,12.97-1.36,7.95,7.32-2,17.28-2,17.28Z"/>
      <circle class="cls-6" cx="322.33" cy="39.68" r="6.11"/>
      <path class="cls-3" d="M152.23,61.64s5.76,1.4,3.36,7.82c-1.78,4.76-8.57,2.09-8.57,2.09,0,0,1.28,6.38-5.18,6.49-7.14.11-7.1-7.27-7.1-7.27,0,0-8.17.88-9.29-5.43-1.3-7.28,7.9-9.48,7.9-9.48,0,0-.38-8.48,4.8-9.51s6.83,4.78,6.83,4.78c0,0,4.21-4.91,8.57-.9,5.25,4.84-1.32,11.42-1.32,11.42Z"/>
      <circle class="cls-6" cx="141.99" cy="62.19" r="4.04"/>
      <path class="cls-1" d="M153.43,21.23s-7.98-7.28-1.37-11.2c7.32-4.34,10.63,6.17,10.63,6.17,0,0,7.2-6.3,10.86-.91,3.66,5.39-1.83,9.03-1.83,9.03,0,0,7.17,2.27,4.57,7.89-2.74,5.94-10.29,3.89-10.29,3.89,0,0-.8,6.42-7.66,6.4-7.22-.02-4.92-10.29-4.92-10.29,0,0-10.86,2.17-10.86-6.17,0-6.88,10.86-4.8,10.86-4.8Z"/>
      <circle class="cls-6" cx="161.09" cy="25.73" r="2.86"/>
      <path class="cls-1" d="M92.05,378.15s-8.69-7.93-1.49-12.21c7.97-4.73,11.58,6.73,11.58,6.73,0,0,7.85-6.86,11.83-1s-1.99,9.84-1.99,9.84c0,0,7.81,2.47,4.98,8.59-2.99,6.48-11.21,4.23-11.21,4.23,0,0-.87,6.99-8.34,6.97-7.86-.02-5.36-11.21-5.36-11.21,0,0-11.84,2.37-11.83-6.73,0-7.49,11.83-5.23,11.83-5.23Z"/>
      <circle class="cls-6" cx="100.4" cy="383.06" r="3.11"/>
      <path class="cls-2" d="M167.9,64.55s-14.56-10.26-7.2-15.77c9.6-7.2,14.97,6.97,14.97,6.97,0,0,8.69-9.6,14.06-3.54,5.37,6.06-2.4,11.43-2.4,11.43,0,0,11.96.79,9.01,10.86-2.61,8.92-11.3,4.34-11.3,4.34,0,0,1.49,8.8-4.57,8.8-7.2,0-7.54-8.69-7.54-8.69,0,0-7.48,6.45-12.23,1.37-8.34-8.92,7.2-15.77,7.2-15.77Z"/>
      <circle class="cls-5" cx="176.86" cy="67.19" r="4.04"/>
      <path class="cls-6" d="M277.07,376s14.08-9.92,6.96-15.25c-9.29-6.96-14.48,6.74-14.48,6.74,0,0-8.4-9.29-13.6-3.43-5.2,5.86,2.32,11.05,2.32,11.05,0,0-11.57.76-8.72,10.5,2.53,8.62,10.93,4.2,10.93,4.2,0,0-1.44,8.51,4.42,8.51,6.96,0,7.3-8.4,7.3-8.4,0,0,7.23,6.23,11.83,1.33,8.07-8.62-6.96-15.25-6.96-15.25Z"/>
      <circle class="cls-5" cx="268.4" cy="378.55" r="3.91"/>
      <path class="cls-2" d="M141.8,417.2s14.89-10.76,7.23-16.37c-10-7.31-15.36,7.38-15.36,7.38,0,0-9.08-9.8-14.55-3.48-5.47,6.32,2.62,11.76,2.62,11.76,0,0-12.33.96-9.16,11.32,2.81,9.17,11.71,4.34,11.71,4.34,0,0-1.42,9.1,4.83,9.02,7.43-.09,7.68-9.06,7.68-9.06,0,0,7.8,6.56,12.64,1.26,8.5-9.3-7.63-16.19-7.63-16.19Z"/>
      <circle class="cls-5" cx="132.58" cy="420.04" r="4.17"/>
      <path class="cls-2" d="M281.61,419.37s14.61-10.56,7.1-16.06c-9.81-7.17-15.07,7.24-15.07,7.24,0,0-8.91-9.61-14.28-3.42-5.36,6.2,2.57,11.54,2.57,11.54,0,0-12.1.95-8.99,11.1,2.75,8.99,11.49,4.26,11.49,4.26,0,0-1.4,8.93,4.74,8.86,7.29-.09,7.53-8.89,7.53-8.89,0,0,7.65,6.44,12.4,1.24,8.34-9.13-7.48-15.88-7.48-15.88Z"/>
      <circle class="cls-5" cx="272.57" cy="422.16" r="4.09"/>
      <path class="cls-4" d="M77.68,75.58s-.03,0-.04,0c-1.1-.02-1.98-.93-1.96-2.03.27-14.45-3.62-29.51-7.59-38.03-.47-1-.03-2.18.96-2.65,1-.46,2.18-.03,2.65.96,5,10.73,8.2,26.72,7.96,39.79-.02,1.09-.91,1.96-1.99,1.96Z"/>
      <path class="cls-3" d="M49.79,21.16s-10.07,27.52,2.86,27.89c8.11.23,8.23-8.34,8.23-8.34,0,0,6.06,6.63,11.2,3.2s2.86-9.26,2.86-9.26c0,0,8.09,4.64,11.55,0,4.38-5.88-3.77-13.49-3.77-13.49,0,0,8.76-.55,8.12-5.14-1.66-11.84-25.72-6.17-25.72-6.17l-15.32,11.32Z"/>
      <path class="cls-6" d="M49.53,22.88s-11.43-16.44-3.33-21.45c9.54-5.9,20.43,8.48,20.43,8.48-2.69,6.53-8.48,10.79-17.1,12.98Z"/>
      <path class="cls-4" d="M433.42,321c-1.07,0-1.96-.85-1.99-1.93-.76-24.94,1.37-41.52,6.73-52.17.5-.98,1.69-1.38,2.68-.89.98.49,1.38,1.69.89,2.68-5.04,10.03-7.05,26-6.3,50.25.03,1.1-.83,2.02-1.93,2.05-.02,0-.04,0-.06,0Z"/>
      <path class="cls-4" d="M363.31,91.27c-1.1,0-1.99-.89-1.99-1.99,0-12.28,2.8-23.79,8.34-34.19,5.39-10.11,12.02-16.71,16.63-20.46.85-.7,2.11-.57,2.81.29.7.85.57,2.11-.29,2.81-5.52,4.49-23.52,21.49-23.5,51.56,0,1.1-.89,1.99-1.99,2h0Z"/>
      <path class="cls-6" d="M439.97,246.5s-27.43-8.23-27.59,3.66,15.85,8.69,15.85,8.69c0,0-6.25,10.67.46,15.09,6.71,4.42,14.94-3.2,14.94-3.2,0,0-.61,16.16,9.3,14.78s6.54-13.87,6.54-13.87c0,0,12.67,9.99,17.39,3.51,7.3-10.03-6.12-17.44-14.76-19.06-4.86-.91-9.52-2.68-13.85-5.06l-8.28-4.54Z"/>
      <path class="cls-5" d="M438.29,246.8s7.93-18.44,16.61-14.33c8.69,4.12,2.29,23.47,2.29,23.47-8.4-.96-14.21-4.49-18.9-9.14Z"/>
      <path class="cls-2" d="M398.82,29.31c6.05-6.25,4.88-32.4-10.36-25.3-9.73,4.53,4.23,12.88,4.12,20.42-5.37-8.92-20.62-15.4-24.2-6.76-4.22,10.16,9.42,9.96,9.42,9.96,0,0-11.74,5.26-7.39,12.05,4.78,7.47,18.06-1.68,18.06-1.68,0,0-15.66,18.56-3.54,22.44,10.11,3.24,11.93-14.65,11.93-14.65,1.91,6.07-.95,12.6,5.91,13.16,11.77.97,11.09-26.86-3.92-29.64Z"/>
      <circle class="cls-7" cx="405.69" cy="26.57" r="1.91"/>
      <circle class="cls-7" cx="408.32" cy="19.43" r="1.91"/>
      <circle class="cls-7" cx="410.49" cy="25.15" r="1.91"/>
      <circle class="cls-7" cx="409.86" cy="32.29" r="1.91"/>
      <circle class="cls-7" cx="414.83" cy="29.66" r="1.91"/>
      <circle class="cls-7" cx="414.83" cy="23.23" r="1.91"/>
      <path class="cls-4" d="M88.5,186.92c-.25,0-.5-.05-.74-.14-13.42-5.36-21.41-15.89-25.14-33.13-.23-1.08.45-2.14,1.53-2.37,1.08-.23,2.14.45,2.37,1.53,3.42,15.83,10.64,25.45,22.72,30.27,1.02.41,1.52,1.57,1.11,2.59-.31.78-1.06,1.26-1.85,1.26Z"/>
      <path class="cls-4" d="M90.46,184.82c.37,1.13-.29,2.33-1.45,2.57-5.3,1.13-20.01,3.91-20.85-2.27-1.13-8.29,11.55-4.82,11.55-4.82,0,0-4.1-17.31,2.63-18.12,5.85-.56,5.18,13.63,8.13,22.63Z"/>
      <circle class="cls-2" cx="58.46" cy="141.31" r="1.6"/>
      <circle class="cls-2" cx="53.48" cy="136.5" r="1.6"/>
      <circle class="cls-2" cx="59.37" cy="135.88" r="1.6"/>
      <circle class="cls-2" cx="52.31" cy="141.31" r="1.6"/>
      <path class="cls-7" d="M61.22,144.53c-10.95,1.13-21.78,7.05-16.31,14.26,2.13,2.81,5.71,1.02,7.16-1.45-.88,5.49-.1,12.08,5.03,12.5,5.64.46,7.54-6.94,7.01-16.77,2.18,7.98,5.39,16.84,11.89,12.96,5.51-3.3-.15-10.37-6.1-16.46,6.26,5.84,12.96,9.42,15.55,4.27,3.96-7.87-4.37-11.84-17.68-10.52,5.9-.93,12.8-3.66,10.16-8.69-3.31-6.3-12.88-2.62-16.72,9.91Z"/>
      <path class="cls-4" d="M393.04,71c.03.91-.56,1.73-1.44,1.98-12.88,3.71-21.82,9.81-26.56,18.12-.36.64-1.04,1.01-1.73,1.01-.25,0-.5-.04-.74-.14-.92-.37-1.43-1.37-1.19-2.33.09-.35.18-.71.27-1.06-.02-.12-.02-.24-.02-.37.77-16.67.43-35.34-7.88-47.39-.54-.78-.45-1.83.2-2.52.66-.68,1.7-.81,2.51-.3,12.51,7.94,14.15,21.36,12.27,35.52.85-.82,1.76-1.56,2.74-2.18,5.01-3.26,11.74-4,20.01-2.21.89.19,1.54.97,1.57,1.88Z"/>
      <path class="cls-7" d="M415.2,176.01s23.32-28.58,15.09-57.16c-7.41-25.74-30.15-44.44-6.45-59.21,22.22-13.85,51.03,23.46,42.11,56.61s-50.75,59.76-50.75,59.76Z"/>
      <path class="cls-5" d="M141.09,368.13s13.39,13.89,34.29,8.84c18.29-4.42,30.61-19.62,43.26,1.58,10.24,17.17-19.01,35.05-42.52,27.09-23.51-7.96-35.03-37.51-35.03-37.51Z"/>
      <path class="cls-3" d="M86.95,216.71s-9.01,12.72-30.06,7.83c-16.08-3.73-26.45-12.34-32.85,1.69-6.94,15.19,10.52,26.52,34.41,21.52,19.48-4.08,28.5-31.04,28.5-31.04Z"/>
      <path class="cls-3" d="M74.99,296.08s-15.8,11.66-8.11,36.83c5.88,19.22,17.65,31.26,0,39.84-19.13,9.29-34.88-11.14-30.02-40.34,3.97-23.8,38.13-36.33,38.13-36.33Z"/>
      <path class="cls-7" d="M204.96,127.34s4.36-36.63,30.64-50.55c23.67-12.55,52.92-9.18,47.08-36.49-5.47-25.6-52.32-20.42-69.98,9.02-17.66,29.44-7.74,78.02-7.74,78.02Z"/>
      <path class="cls-1" d="M322.87,337.63s27.62,24.45,56.5,17.37c26.02-6.37,45.62-28.34,59.42-4.06,12.94,22.76-25.49,50.04-58.26,39.8s-57.67-53.11-57.67-53.11Z"/>
      <path class="cls-6" d="M234.52,87.64s20.14-7.52,37.68,1.31c12.62,6.35,18.96,25.51,33.35,13.97,13.11-10.52-1.04-33.46-23.61-35.49-22.58-2.02-47.41,20.21-47.41,20.21Z"/>
      <path class="cls-1" d="M337.18,366.58s14.01,16.31,11.77,35.82c-1.61,14.04-13.19,27.03.49,35.08,12.96,7.62,28.95-11.47,23.06-33.36-5.89-21.89-35.32-37.53-35.32-37.53Z"/>
      <path class="cls-1" d="M97.55,151.35s-11.9-35.15-40.61-43.04c-25.86-7.1-51.56.59-51.5-27.64.06-26.47,44.82-29.65,68.29-4.54s23.82,75.22,23.82,75.22Z"/>
      <path class="cls-6" d="M92.11,216.71s-11.9,35.15-40.61,43.04C25.64,266.85-.06,259.16,0,287.39c.06,26.47,44.82,29.65,68.29,4.54,23.47-25.1,23.82-75.22,23.82-75.22Z"/>
      <path class="cls-1" d="M99.48,118.21s-4.41-21.04,6.96-37.05c8.18-11.52,24.59-17.33,16.49-30.97-7.68-12.92-30.9-3.91-36.29,18.11-5.4,22.02,12.85,49.91,12.85,49.91Z"/>
      <path class="cls-1" d="M409.23,188.73s22.17-4.53,35.36,8.08c11.88,11.36,15.56,29.04,30.34,20.37,13.85-8.13,1.78-34.41-18.77-39.01-20.55-4.6-46.93,10.56-46.93,10.56Z"/>
      <path class="cls-3" d="M419.43,177.15s16.56-9.51,29.45-22.18c9.53-9.37,21.65-37.49,37.42-23.09,24.05,21.96-39.32,45.28-66.87,45.27Z"/>
    </g>
  </g>
</svg>