<?xml version="1.0" encoding="UTF-8"?>
<svg id="Capa_2" xmlns="http://www.w3.org/2000/svg" viewBox="0 0 897.23 897.23">
  <defs>
    <style>
      .cls-1 {
        fill: #e6007e;
      }
    </style>
  </defs>
  <g id="Capa_1-2" data-name="Capa_1">
    <g>
      <path class="cls-1" d="M309.04,390.22h-45.13s-3.63-94.92,20.66-94.92c30.94,0,24.47,94.92,24.47,94.92Z"/>
      <path class="cls-1" d="M897.23,448.62c0-14.14-43.31-26.04-44.65-39.82-1.37-14.04,38.8-34.1,36.11-47.7-2.73-13.82-47.53-17.05-51.56-30.35-4.07-13.45,31.38-41,26.05-53.86-5.38-12.96-49.94-7.34-56.52-19.62-6.62-12.36,22.76-46.33,15-57.92-7.8-11.64-50.4,2.57-59.27-8.22-8.88-10.81,13.33-49.84,3.44-59.73-9.88-9.88-48.91,12.32-59.73,3.44-10.79-8.86,3.43-51.47-8.21-59.26-11.6-7.76-45.56,21.61-57.92,14.99-12.29-6.58-6.66-51.14-19.63-56.52-12.85-5.33-40.4,30.13-53.86,26.05-13.3-4.03-16.53-48.83-30.34-51.56-13.61-2.69-33.67,37.48-47.71,36.12-13.78-1.35-25.68-44.66-39.81-44.66s-26.04,43.31-39.82,44.66c-14.04,1.36-34.1-38.81-47.7-36.12-13.82,2.73-17.05,47.53-30.35,51.56-13.45,4.08-41-31.38-53.86-26.05-12.96,5.38-7.34,49.94-19.62,56.52-12.36,6.62-46.33-22.76-57.92-14.99-11.64,7.79,2.57,50.39-8.22,59.26-10.81,8.88-49.84-13.33-59.73-3.44-9.88,9.88,12.32,48.92,3.44,59.73-8.86,10.79-51.47-3.42-59.26,8.21-7.76,11.6,21.61,45.57,14.99,57.92-6.58,12.29-51.14,6.66-56.52,19.63-5.33,12.86,30.13,40.41,26.05,53.86-4.03,13.3-48.83,16.53-51.56,30.35-2.69,13.6,37.48,33.66,36.12,47.7-1.35,13.78-44.66,25.68-44.66,39.82s43.31,26.03,44.66,39.81c1.36,14.04-38.81,34.1-36.12,47.71,2.73,13.81,47.53,17.04,51.56,30.34,4.08,13.45-31.38,41-26.05,53.86,5.38,12.97,49.94,7.34,56.52,19.63,6.62,12.35-22.76,46.32-14.99,57.91,7.79,11.64,50.39-2.57,59.26,8.22,8.88,10.81-13.33,49.85-3.44,59.73,9.88,9.89,48.92-12.32,59.73-3.44,10.79,8.87-3.42,51.47,8.21,59.26,11.6,7.77,45.57-21.61,57.92-14.99,12.29,6.58,6.66,51.14,19.63,56.52,12.86,5.33,40.41-30.12,53.86-26.05,13.3,4.03,16.53,48.83,30.35,51.56,13.6,2.69,33.66-37.48,47.7-36.11,13.78,1.34,25.68,44.65,39.82,44.65s26.03-43.31,39.81-44.65c14.04-1.37,34.1,38.8,47.71,36.11,13.81-2.73,17.04-47.53,30.34-51.56,13.45-4.07,41,31.38,53.86,26.05,12.97-5.37,7.34-49.94,19.63-56.52,12.35-6.62,46.32,22.76,57.91,15,11.64-7.8-2.57-50.4,8.22-59.27,10.81-8.88,49.85,13.33,59.73,3.44,9.89-9.88-12.32-48.91-3.44-59.73,8.87-10.79,51.47,3.43,59.26-8.21,7.77-11.6-21.61-45.56-14.99-57.92,6.58-12.29,51.14-6.66,56.52-19.63,5.33-12.85-30.12-40.4-26.05-53.86,4.03-13.3,48.83-16.53,51.56-30.34,2.69-13.61-37.48-33.67-36.11-47.71,1.34-13.78,44.65-25.68,44.65-39.81ZM340.82,678c-43.61,0-40.38-59.86-33.07-87.71,9.09-34.64,2.38-87.45,2.38-87.45,0,0-2.93-33.47-24.47-33.47s-22.58,33-22.58,33c0,0-3.91,49.79-.39,88.05,4.54,49.4-2.84,90.59-62.2,90.59-45.48,0-35.65-56.87-31.75-79.79,3.63-21.33,12.24-59.64,25.59-87.95,15.35-31.85,16.33-79.21,12.82-125.48-6.09-79.8-2.4-171.57,75.57-171.57,83.69,0,93.42,63.58,82.49,180.98.75,32.72-.97,81.58,5.6,106.87,9.76,37.56,21.93,60.81,22.79,95.5,0,51.32-5.99,78.43-52.78,78.43ZM483.07,327.9c-25.74,23.89-18.39,121.97-15.44,139.18,4.55,26.6,8.36,130.88,8.36,154.02,0,44.1-4.4,60.44-36.68,60.44-23.06,0-32.27-10.82-32.26-54.92,0-13.45,7.28-123.83,9.21-159.29,1.43-26.35-2.01-117.8-4.03-155.32-1.55-28.68-1.83-75.84,41.88-76.92,58.59-1.44,69.85,31.74,85.59,54.22,21.24,30.32,45.2,98.19,54.85,85.32,11.98-15.96-18.25-79.66-19.45-110.63-1.29-33.08,5.62-47.78,33.94-47.78,31,0,31.52,22.85,31.05,38.59-.96,32.36-3.06,90.75-2.57,123.13.59,39.4,5.9,85.36-9.01,96.42-29.18,21.64-66.69-63.92-83.02-87.23-15.82-22.59-41.59-78.56-62.42-59.23ZM726.98,585.22c1.55,28.68,1.83,75.85-41.89,76.92-58.58,1.44-69.85-31.74-85.59-54.21-21.23-30.33-45.19-98.19-54.85-85.33-11.97,15.96,18.25,79.66,19.46,110.63,1.29,33.08-5.63,47.78-33.94,47.78-31.01,0-31.53-22.84-31.06-38.59.97-32.36,3.07-90.75,2.58-123.13-.6-39.4-5.91-85.35,9.01-96.41,29.18-21.65,66.69,63.91,83.01,87.22,15.82,22.59,41.6,78.56,62.42,59.23,25.74-23.89,18.39-121.97,15.45-139.17-4.56-26.61-8.37-130.89-8.37-154.02,0-44.11,4.4-60.44,36.68-60.44,23.06,0,32.27,10.81,32.26,54.92,0,13.44-7.27,123.83-9.2,159.28-1.43,26.35,2,117.8,4.03,155.32Z"/>
    </g>
  </g>
</svg>